<?xml version="1.0" encoding="UTF-8" standalone="no"?>
<!DOCTYPE svg PUBLIC "-//W3C//DTD SVG 1.1//EN" "http://www.w3.org/Graphics/SVG/1.1/DTD/svg11.dtd">
<svg width="100%" height="100%" viewBox="0 0 8380 1242" version="1.1" xmlns="http://www.w3.org/2000/svg" xmlns:xlink="http://www.w3.org/1999/xlink" xml:space="preserve" xmlns:serif="http://www.serif.com/" style="fill-rule:evenodd;clip-rule:evenodd;stroke-linejoin:round;stroke-miterlimit:2;">
    <g id="Layer-1" serif:id="Layer 1" transform="matrix(4.166667,0,0,4.166667,0,0)">
        <g transform="matrix(1,0,0,1,227.789,151.9353)">
            <path d="M0,-5.87C14.168,-11.097 28.014,-24.637 28.014,-48.969C28.014,-86.825 -3.699,-105.914 -52.957,-105.914L-186.789,-105.914L-186.789,-52.346L-50.175,-52.346C-41.25,-52.346 -32.324,-49.274 -32.324,-39.111C-32.324,-28.642 -40.944,-25.265 -72.689,-25.265L-186.789,-25.265L-186.789,18.767L-73.622,18.767C-37.245,18.767 -31.408,23.688 -31.408,32.613C-31.408,42.166 -37.245,47.087 -51.108,47.087L-186.789,47.087L-186.789,100.044L-51.413,100.044C13.541,100.044 32.324,74.185 32.324,40.011C32.324,15.374 17.851,-0.627 0,-5.87" style="fill-rule:nonzero;"/>
        </g>
        <g transform="matrix(1,0,0,1,515.3191,98.9714)">
            <path d="M0,100.057L-41.253,153.009L-223.2,153.009L-223.2,-52.952L-159.473,-52.952L-159.473,100.057L0,100.057Z" style="fill-rule:nonzero;"/>
        </g>
        <g transform="matrix(1,0,0,1,613.5195,44.3272)">
            <path d="M0,209.346L38.482,156.394L90.204,156.394C102.518,156.394 116.987,156.394 126.839,157.01C121.297,149.621 112.677,136.999 105.904,127.147L68.961,72.655L-27.708,209.346L-103.134,209.346L28.939,23.089C37.559,11.082 50.182,0 70.193,0C89.28,0 101.902,10.159 110.83,23.089L239.517,209.346L0,209.346Z" style="fill-rule:nonzero;"/>
        </g>
        <g transform="matrix(1,0,0,1,961.6935,198.4111)">
            <path d="M0,-98.822L150.348,-98.822L150.348,-152.39L0,-152.39C-71.419,-152.39 -124.054,-111.752 -124.054,-51.413C-124.054,8.314 -71.419,53.568 0,53.568L150.348,53.568L150.348,0.611L0,0.611C-34.785,0.611 -60.339,-19.394 -60.339,-48.647C-60.339,-78.205 -34.479,-98.822 0,-98.822" style="fill-rule:nonzero;"/>
        </g>
        <g transform="matrix(1,0,0,1,1388.078,46.0202)">
            <path d="M0,205.96L-96.362,205.96L-158.551,151.775C-179.793,133.305 -189.645,124.377 -196.725,117.295C-196.417,126.839 -195.802,136.999 -195.802,146.85L-195.802,205.96L-259.837,205.96L-259.837,0L-195.802,0L-195.802,47.719C-195.802,60.341 -196.417,72.962 -197.033,83.739C-189.029,76.35 -177.945,65.883 -159.166,50.181L-99.749,0L-7.391,0L-86.203,59.109C-113.602,79.736 -126.225,88.972 -139.463,96.977C-127.764,104.981 -111.755,116.372 -85.279,137.922L0,205.96Z" style="fill-rule:nonzero;"/>
        </g>
        <g transform="matrix(1,0,0,1,1668.834,46.0202)">
            <path d="M0,205.96L-96.361,205.96L-158.549,151.775C-179.793,133.305 -189.643,124.377 -196.724,117.295C-196.417,126.839 -195.801,136.999 -195.801,146.85L-195.801,205.96L-259.837,205.96L-259.837,0L-195.801,0L-195.801,47.719C-195.801,60.341 -196.417,72.962 -197.032,83.739C-189.027,76.35 -177.945,65.883 -159.166,50.181L-99.749,0L-7.389,0L-86.202,59.109C-113.6,79.736 -126.224,88.972 -139.463,96.977C-127.763,104.981 -111.754,116.372 -85.279,137.922L0,205.96Z" style="fill-rule:nonzero;"/>
        </g>
        <g transform="matrix(-1,0,0,1,3445.083,0)">
            <rect x="1690.678" y="46.02" width="63.727" height="205.96"/>
        </g>
        <g transform="matrix(1,0,0,1,1913.8268,251.6416)">
            <path d="M0,-205.283L0,-84.574L-1.721,-86.118L-126.225,-197.869C-130.375,-201.632 -134.122,-204.173 -137.611,-205.846L-137.611,0.402L-128.702,0.402L-128.702,-120.597L-2.477,-7.301C-2.219,-7.06 -1.962,-6.835 -1.721,-6.61C1.914,-3.313 5.243,-1.013 8.411,0.563L38.821,0.563C46.733,-3.007 53.118,-9.697 56.173,-20.054L56.173,-205.283L0,-205.283Z" style="fill-rule:nonzero;"/>
        </g>
        <g transform="matrix(-1,0,0,1,3882.106,0)">
            <rect x="1912.106" y="46.077" width="57.894" height="205.846"/>
        </g>
    </g>
</svg>
