<?xml version="1.0" encoding="UTF-8" standalone="no"?>
<!DOCTYPE svg PUBLIC "-//W3C//DTD SVG 1.1//EN" "http://www.w3.org/Graphics/SVG/1.1/DTD/svg11.dtd">
<svg width="100%" height="100%" viewBox="0 0 5209 8334" version="1.1" xmlns="http://www.w3.org/2000/svg" xmlns:xlink="http://www.w3.org/1999/xlink" xml:space="preserve" xmlns:serif="http://www.serif.com/" style="fill-rule:evenodd;clip-rule:evenodd;stroke-linejoin:round;stroke-miterlimit:2;fill:white;">
    <g id="Layer-1" serif:id="Layer 1" transform="matrix(4.166667,0,0,4.166667,0,0)">
        <g transform="matrix(1,0,0,1,645.4403,1595.1214)">
            <path d="M0,-856.509L0,-799.243L1.126,-799.806C28.435,-812.682 104.999,-861.143 202.285,-923.176C215.724,-931.716 229.528,-940.521 243.662,-949.558C308.741,-991.035 380.605,-1036.781 451.906,-1081.138C463.988,-1088.652 476.07,-1096.133 488.119,-1103.548L488.119,-233.467C488.119,-196.161 478.95,-159.352 460.777,-126.747C460.678,-126.614 460.578,-126.416 460.479,-126.25C428.37,-69.216 389.112,-23.039 340.452,14.962C301.69,45.184 261.008,72.129 217.975,100.663C199.273,113.109 179.942,125.853 160.974,138.895C143.662,150.746 126.316,162.629 108.938,174.48C61.172,207.184 12.016,240.782 -36.611,274.381C-50.149,265.211 -73.618,247.502 -114.632,213.043C-119.597,208.872 -122.907,206.125 -125.092,204.37C-158.988,177.392 -194.639,152.765 -229.064,128.865C-251.077,113.539 -273.851,97.783 -295.599,81.795C-358.856,35.22 -408.41,-9.268 -447.073,-54.254C-447.437,-54.717 -447.768,-55.115 -448.132,-55.545C-500.698,-116.982 -529,-195.565 -529,-276.433L-529,-1107.851C-518.242,-1101.561 -506.226,-1094.412 -492.786,-1086.302C-466.371,-1070.413 -434.461,-1050.817 -395.897,-1026.652C-289.641,-960.051 -174.711,-885.241 -106.058,-840.554C-70.672,-817.482 -55.313,-807.485 -47.336,-802.752L-47.336,-862.633C-50.613,-864.785 -54.154,-867.069 -57.961,-869.518L-58.259,-869.717C-152.467,-930.955 -399.241,-1092.359 -529,-1166.209C-538.996,-1171.903 -548.298,-1177.1 -556.739,-1181.635L-556.938,-1181.734C-561.373,-1184.117 -565.577,-1186.335 -569.549,-1188.388L-569.549,-212.977C-569.549,-165.41 -555.944,-118.637 -529.43,-79.08C-529.298,-78.848 -529.132,-78.584 -529,-78.385C-476.202,0.132 -403.246,65.211 -325.556,122.443C-269.548,163.722 -210.726,200.829 -156.538,243.927C-144.92,253.162 -54.85,331.879 -32.903,331.879C-31.645,331.879 -30.619,331.614 -29.792,331.051C43.099,280.604 116.353,230.653 189.508,180.537C250.415,138.895 313.441,100.133 371.535,54.75C418.904,17.809 456.672,-24.694 488.119,-74.082C493.779,-82.986 499.241,-92.122 504.471,-101.457C504.571,-101.623 504.67,-101.788 504.736,-101.92C520.692,-130.421 528.669,-162.662 528.669,-195.301L528.669,-1187.924C517.944,-1181.304 107.846,-918.211 0,-856.509" style="fill-rule:nonzero;"/>
        </g>
        <g transform="matrix(1,0,0,1,1160.684,557.3665)">
            <path d="M0,-332.142L-85.777,-129.092C-232.093,-35.853 -498.136,132.946 -538.997,152.224C-543.053,150.923 -819.862,-32.749 -993.218,-136.653L-1077.994,-334.345L-876.846,-267.646C-878.999,-257.18 -887.061,-212.966 -860.722,-168.199C-831.329,-118.124 -781.255,-105.306 -772.392,-103.203C-762.327,-100.299 -717.661,-88.581 -670.692,-112.667C-631.533,-132.697 -614.208,-165.596 -609,-176.562C-605.445,-184.374 -588.12,-224.232 -605.144,-270.45C-624.173,-322.176 -670.942,-340.654 -677.902,-343.258C-631.233,-390.277 -584.564,-437.346 -537.895,-484.366L-403.396,-347.664C-414.913,-341.105 -444.006,-322.377 -462.885,-284.921C-481.712,-247.466 -479.409,-213.016 -477.857,-199.896C-474.751,-188.48 -461.983,-147.569 -420.672,-119.327C-372.501,-86.378 -321.476,-95.191 -311.761,-97.095C-304.3,-98.146 -246.915,-107.509 -215.068,-161.539C-186.226,-210.412 -199.846,-259.434 -202.299,-267.646C-134.85,-289.178 -67.45,-310.66 0,-332.142" style="fill-rule:nonzero;"/>
        </g>
        <g transform="matrix(1,0,0,1,1097.3463,1792.8055)">
            <path d="M0,-1285.972L0,-874.186L-105.595,-800.699L0,-789.875L0,-425.424C0,-414.037 -2.251,-402.75 -6.819,-392.322C-6.852,-392.289 -6.885,-392.223 -6.885,-392.19C-20.523,-361.108 -36.28,-334.229 -52.268,-311.356C-53.691,-309.303 -55.115,-307.284 -56.571,-305.298C-83.98,-267.297 -117.942,-234.526 -156.274,-207.582L-208.244,-171.103L-208.244,-641.347L-249.621,-670.146L-249.621,-142.04L-341.379,-77.558L-440.188,-8.21L-451.906,0L-451.906,-1010.797L-249.621,-1133.968L-249.621,-783.222L-209.17,-811.358L-208.244,-811.259L-208.244,-1159.159L0,-1285.972Z" style="fill-rule:nonzero;"/>
        </g>
        <g transform="matrix(1,0,0,1,152.6539,792.3697)">
            <path d="M0,-295.864L0,-283.55C26.415,-267.661 58.325,-248.065 96.889,-223.9C203.146,-157.3 318.075,-82.49 386.728,-37.802C422.114,-14.73 437.473,-4.734 445.451,0L445.451,-24.661L0,-295.864Z" style="fill-rule:nonzero;"/>
        </g>
        <g transform="matrix(1,0,0,1,400.8842,1300.714)">
            <path d="M0,-294.242L-43.661,-321.551L-43.661,-530.522L0,-503.18L0,-294.242ZM0,172.957L-43.661,145.648L-43.661,-199.869L0,-172.56L0,172.957ZM138.498,-546.147C69.845,-590.834 -45.085,-665.644 -151.341,-732.245C-189.905,-756.409 -221.815,-776.005 -248.23,-791.894L-248.23,-297.155L-247.171,-296.658L-248.23,-296.162L-248.23,53.327C-248.23,74.909 -243.563,96.293 -234.129,115.691C-234.096,115.79 -234.03,115.889 -233.997,116.022C-221.153,142.337 -206.853,165.476 -192.255,185.535C-190.799,187.588 -189.342,189.541 -187.886,191.494C-160.709,227.707 -127.938,259.353 -91.427,286.132C-75.538,297.784 -59.583,309.468 -43.661,321.12C-29.096,331.812 -14.532,342.471 0,353.13C61.073,397.884 122.146,442.637 183.152,487.358C187.853,490.8 192.553,494.243 197.221,497.652L197.221,-87.786L101.159,-192.454L157.035,-195.963L197.221,-198.511L197.221,-508.344C189.243,-513.078 173.884,-523.075 138.498,-546.147" style="fill-rule:nonzero;"/>
        </g>
    </g>
</svg>
